REM MD5 9dea17b12b4cf567a47e5ef580353cda
FILE "Defcon 5 (Spain).bin" BINARY
  TRACK 01 MODE2/2352
    INDEX 01 00:00:00
  TRACK 02 AUDIO
    INDEX 00 35:08:49
    INDEX 01 35:10:49
  TRACK 03 AUDIO
    INDEX 00 48:18:62
    INDEX 01 48:20:62
REM LEADOUT 51:27:55
